<?xml version="1.0" encoding="UTF-8"?>
<svg id="_レイヤー_1" data-name="レイヤー 1" xmlns="http://www.w3.org/2000/svg" viewBox="0 0 210.68 402">
  <defs>
    <style>
      .cls-1 {
        fill: #cf121b;
      }

      .cls-2 {
        fill: #000032;
      }
    </style>
  </defs>
  <g>
    <polygon class="cls-1" points="98.91 133.17 60.1 160.34 21.28 133.17 60.1 106 98.91 133.17"/>
    <path class="cls-2" d="M210.68,12.19c-1.29,8.69-6.08,32.99-26.71,54.16-14.77,15.15-31.1,21.97-40.99,25.06h-22.75v-21.21c2.67-9.44,9.3-27.39,25.8-43.48C167.2,6.08,191.5,1.29,200.19,0h-80.01s-1.58,0-1.58,0v91.41H39.96c-13.43,0-25.82,6.36-33.14,17-2.37,3.45-4.09,7.14-5.09,10.97-5.33,20.24,1.8,37.69,20.07,49.11,2.12,1.32,4.34,2.53,6.65,3.63v102.8h181.9v-103.68c-23.72,11.37-56.95,10.23-75.67-5.86-9.48-8.15-13.08-19.43-14.45-31.26v-41.13h90.44v-.33h0V12.19ZM3.25,119.78c.96-3.66,2.6-7.18,4.87-10.48,7.03-10.22,18.93-16.31,31.84-16.31h78.64v19.24c.01,18.57.02,39.62-15.01,52.55-9.76,8.39-24.68,13.21-40.92,13.21h0c-14.64,0-28.86-3.85-40.03-10.84C5,156.12-1.88,139.3,3.25,119.78Z"/>
  </g>
  <g>
    <path class="cls-2" d="M28.5,305.13h15.17v1.59c-4.43.4-5.23.79-5.23,5.85v9.77c1.14-.11,2.44-1.02,4.09-2.61,3.18-3.01,6.99-6.87,9.6-9.83,1.7-1.93,1.53-2.67-.91-3.01l-1.59-.17v-1.59h13.8v1.59c-4.26.51-5.74.79-9.55,4.72-1.7,1.65-6.14,5.96-9.77,9.54,4.32,5.11,10.62,12.38,13.58,15.51,2.9,3.12,3.64,3.58,7.16,3.98v1.59h-9.09c-4.37-4.94-8.98-10.45-14.15-16.48-1.31-1.59-2.27-1.7-3.18-1.65v10.79c0,4.94.51,5.34,5.23,5.74v1.59h-15.17v-1.59c4.66-.4,5.11-.79,5.11-5.74v-22.16c0-5.11-.4-5.51-5.11-5.85v-1.59Z"/>
    <path class="cls-2" d="M87.7,304.34c9.71,0,18.41,7.44,18.41,18.75,0,12.21-8.29,19.83-18.75,19.83s-18.86-8.29-18.86-18.97,7.22-19.6,19.2-19.6ZM86.56,306.44c-6.36,0-12.16,5.34-12.16,15.96s5.79,18.35,13.86,18.35c6.87,0,12.04-5.11,12.04-16.08,0-11.93-6.31-18.24-13.75-18.24Z"/>
    <path class="cls-2" d="M151.28,326.55c-3.52.45-3.75.79-3.75,4.15v4.77c0,1.99.06,3.86.34,5.4-3.52.79-8.12,2.05-12.9,2.05-12.9,0-20.74-8.01-20.74-19.43,0-11.99,9.77-19.15,21.13-19.15,5.79,0,10.06,1.14,11.82,1.42.11,2.1.4,5.57.85,9.15l-1.7.34c-1.36-4.83-3.01-6.87-6.59-8.07-1.31-.45-3.64-.74-5.28-.74-8.69,0-14.32,5.97-14.32,16.36,0,9.03,4.66,18.01,15.68,18.01,1.93,0,3.69-.4,4.83-.97,1.19-.68,1.93-1.31,1.93-3.64v-4.66c0-4.15-.46-4.6-5.91-5v-1.65h14.6v1.65Z"/>
    <path class="cls-2" d="M188.26,333.03c-.34,1.48-1.87,7.33-2.44,9.03h-27.61v-1.59c5.28-.4,5.68-.91,5.68-5.57v-22.44c0-5.06-.63-5.34-4.89-5.74v-1.59h17.38c5.34,0,7.56-.06,8.24-.11.06,1.42.28,5.68.51,8.69l-1.7.28c-.51-1.93-1.08-3.13-1.7-4.32-.91-1.87-2.22-2.27-5.62-2.27h-5.4c-1.76,0-1.87.17-1.87,1.82v12.55h6.31c4.26,0,4.54-.85,5.23-4.71h1.76v11.7h-1.76c-.74-4.09-1.19-4.66-5.28-4.66h-6.25v11.31c0,3.98,1.25,4.32,4.09,4.37h5.28c3.47,0,4.03-.51,5.28-1.99,1.08-1.19,2.27-3.52,3.07-5.23l1.7.46Z"/>
    <path class="cls-2" d="M195.08,342.06v-1.59c4.66-.51,5.11-.74,5.11-5.57v-22.55c0-4.89-.46-5.11-5.11-5.62v-1.59h15.22v1.59c-4.71.51-5.17.74-5.17,5.62v22.55c0,4.89.45,5.06,5.17,5.57v1.59h-15.22Z"/>
    <path class="cls-2" d="M62.59,392.06c-.8,2.73-2.27,6.82-3.13,8.58-1.65.34-6.08,1.36-10.4,1.36-13.58,0-20.51-9.03-20.51-18.97,0-11.59,8.81-19.6,21.53-19.6,4.89,0,8.86,1.02,10.74,1.31.23,2.56.63,5.97,1.08,8.81l-1.76.4c-1.14-3.81-2.5-6.14-5.4-7.33-1.48-.68-3.81-1.08-5.96-1.08-9.37,0-14.32,6.93-14.32,16.3,0,10.96,5.68,18.01,14.88,18.01,5.79,0,8.64-2.67,11.53-8.35l1.7.57Z"/>
    <path class="cls-2" d="M88.55,363.43c9.72,0,18.41,7.44,18.41,18.75,0,12.21-8.29,19.83-18.75,19.83s-18.86-8.29-18.86-18.97,7.22-19.6,19.2-19.6ZM87.42,365.53c-6.36,0-12.16,5.34-12.16,15.96s5.79,18.35,13.86,18.35c6.88,0,12.04-5.11,12.04-16.08,0-11.93-6.31-18.24-13.75-18.24Z"/>
    <path class="cls-2" d="M129.69,364.22c8.01,0,13.07,1.59,16.59,4.94,2.78,2.73,4.83,6.7,4.83,12.16,0,6.65-2.73,12.04-7.1,15.34-4.32,3.24-9.83,4.49-16.82,4.49h-13.29v-1.59c4.89-.45,5.11-.85,5.11-5.51v-22.67c0-4.89-.68-5.11-5.11-5.57v-1.59h15.79ZM123.95,393.59c0,4.26,1.82,5.45,6.08,5.45,10.23,0,15.45-6.99,15.45-16.93,0-6.19-2.1-10.91-6.59-13.63-2.61-1.65-5.91-2.27-9.71-2.27-2.56,0-3.92.34-4.49.8-.51.34-.74.97-.74,3.18v23.41Z"/>
    <path class="cls-2" d="M187.52,392.12c-.34,1.48-1.88,7.33-2.44,9.03h-27.61v-1.59c5.28-.4,5.68-.91,5.68-5.57v-22.44c0-5.06-.63-5.34-4.89-5.74v-1.59h17.38c5.34,0,7.56-.06,8.24-.11.06,1.42.28,5.68.51,8.69l-1.7.28c-.51-1.93-1.08-3.13-1.7-4.32-.91-1.87-2.22-2.27-5.62-2.27h-5.4c-1.76,0-1.87.17-1.87,1.82v12.55h6.31c4.26,0,4.54-.85,5.23-4.71h1.76v11.7h-1.76c-.74-4.09-1.19-4.66-5.28-4.66h-6.25v11.31c0,3.98,1.25,4.32,4.09,4.37h5.28c3.47,0,4.03-.51,5.28-1.99,1.08-1.19,2.27-3.52,3.07-5.23l1.7.46Z"/>
  </g>
</svg>